<?xml version="1.0" encoding="utf-8"?>
<!-- Generator: Adobe Illustrator 17.1.0, SVG Export Plug-In . SVG Version: 6.00 Build 0)  -->
<!DOCTYPE svg PUBLIC "-//W3C//DTD SVG 1.1//EN" "http://www.w3.org/Graphics/SVG/1.1/DTD/svg11.dtd">
<svg version="1.1" id="Layer_1" xmlns="http://www.w3.org/2000/svg" xmlns:xlink="http://www.w3.org/1999/xlink" x="0px" y="0px"
	 viewBox="0 0 48 48" style="enable-background:new 0 0 48 48;" xml:space="preserve">
<g>
	<path d="M23.9,48c-4.8,0-9.3-2.8-12.9-8c-2.9-4.1-5.1-9.7-6-15c-0.7-4.6,0.1-8.4,2.6-11.3C10.8,10,16.6,8,23.9,8
		c7.4,0,13.2,2,16.3,5.8c2.5,2.9,3.3,6.7,2.6,11.3l0,0C41,36.5,34.5,48,23.9,48z M23.9,10c-3.9,0-11,0.7-14.8,5.1
		c-2.1,2.4-2.8,5.7-2.2,9.7c1.4,8.8,7.6,21.2,17,21.2c9.3,0,15.2-10.7,17-21.2l0,0c0.6-4-0.1-7.3-2.1-9.7C35,10.6,27.9,10,23.9,10z
		 M41.9,25L41.9,25L41.9,25z"/>
	<path d="M23.9,10c-0.3,0-8.2-0.1-9-8.9c0-0.3,0.1-0.6,0.3-0.8S15.7,0,16,0c3.1,0.2,9,2.3,8.9,9C24.9,9.5,24.5,10,23.9,10
		C24,10,24,10,23.9,10z M23.9,9L23.9,9L23.9,9z M17.2,2.2c0.9,4.3,4.1,5.4,5.7,5.7C22.4,3.9,19,2.6,17.2,2.2z"/>
	<path d="M23.9,10c-0.2,0-0.5-0.1-0.7-0.3c-0.2-0.2-0.3-0.5-0.3-0.8c0-0.1,0.1-3.2,2.5-5.2C27,2.3,29.3,1.7,32,2
		c0.3,0,0.5,0.2,0.7,0.4c0.2,0.2,0.2,0.5,0.2,0.7c0,0.2-0.7,5.6-8.8,6.9C24,10,24,10,23.9,10z M30.6,3.9c-1.6,0-2.9,0.5-3.8,1.3
		c-0.9,0.8-1.3,1.7-1.6,2.5C28.7,6.9,30,5.1,30.6,3.9z"/>
	<path d="M12,21c-0.5,0-1-0.5-1-1c-0.1-2.9,0-3.2,0.1-3.4c0.2-0.5,0.7-0.8,1.3-0.6c0.5,0.2,0.8,0.7,0.7,1.2c0,0.3,0,1.7,0,2.8
		C13,20.5,12.6,21,12,21C12,21,12,21,12,21z"/>
	<path d="M20,18c-0.5,0-1-0.5-1-1c-0.1-2.9,0-3.2,0.1-3.3c0.2-0.5,0.7-0.8,1.3-0.6c0.5,0.2,0.8,0.7,0.7,1.2c0,0.3,0,1.7,0,2.8
		C21,17.5,20.6,18,20,18C20,18,20,18,20,18z"/>
	<path d="M35.9,21c-0.5,0-1-0.5-1-1c-0.1-2.9,0-3.2,0.1-3.4c0.2-0.5,0.7-0.8,1.3-0.6c0.5,0.2,0.8,0.7,0.7,1.2c0,0.3,0,1.7,0,2.8
		C37,20.5,36.5,21,35.9,21C36,21,35.9,21,35.9,21z"/>
	<path d="M28.9,18c-0.5,0-1-0.5-1-1c-0.1-2.9,0-3.2,0.1-3.3c0.2-0.5,0.7-0.8,1.3-0.6c0.5,0.2,0.8,0.7,0.7,1.2c0,0.3,0,1.7,0,2.8
		C29.9,17.5,29.5,18,28.9,18C28.9,18,28.9,18,28.9,18z"/>
	<path d="M14,28c-0.5,0-1-0.5-1-1c-0.1-2.9,0-3.2,0.1-3.4c0.2-0.5,0.7-0.8,1.3-0.6c0.5,0.2,0.8,0.7,0.7,1.2c0,0.3,0,1.7,0,2.8
		C15,27.5,14.6,28,14,28C14,28,14,28,14,28z"/>
	<path d="M24,28c-0.5,0-1-0.5-1-1c-0.1-2.9,0-3.2,0.1-3.4c0.2-0.5,0.7-0.8,1.3-0.6c0.5,0.2,0.8,0.7,0.7,1.2c0,0.3,0,1.7,0,2.8
		C25,27.5,24.6,28,24,28C24,28,24,28,24,28z"/>
	<path d="M33.9,28c-0.5,0-1-0.5-1-1c-0.1-2.9,0-3.2,0.1-3.4c0.2-0.5,0.7-0.8,1.3-0.6c0.5,0.2,0.8,0.7,0.7,1.2c0,0.3,0,1.7,0,2.8
		C35,27.5,34.5,28,33.9,28C34,28,34,28,33.9,28z"/>
	<path d="M20,36c-0.5,0-1-0.5-1-1c-0.1-2.9,0-3.2,0.1-3.4c0.2-0.5,0.7-0.8,1.3-0.6c0.5,0.2,0.8,0.7,0.7,1.2c0,0.3,0,1.7,0,2.8
		C21,35.5,20.6,36,20,36C20,36,20,36,20,36z"/>
	<path d="M29,36c-0.5,0-1-0.5-1-1c-0.1-2.9,0-3.2,0.1-3.4c0.2-0.5,0.7-0.8,1.3-0.6c0.5,0.2,0.8,0.7,0.7,1.2c0,0.3,0,1.7,0,2.8
		C30,35.5,29.5,36,29,36C29,36,29,36,29,36z"/>
	<path d="M25,43c-0.5,0-1-0.5-1-1c-0.1-2.9,0-3.2,0.1-3.4c0.2-0.5,0.7-0.8,1.3-0.6c0.5,0.2,0.8,0.7,0.7,1.2c0,0.3,0,1.7,0,2.8
		C26,42.5,25.6,43,25,43C25,43,25,43,25,43z"/>
</g>
</svg>
