<?xml version="1.0" encoding="utf-8"?>
<!-- Generator: Adobe Illustrator 17.1.0, SVG Export Plug-In . SVG Version: 6.00 Build 0)  -->
<!DOCTYPE svg PUBLIC "-//W3C//DTD SVG 1.1//EN" "http://www.w3.org/Graphics/SVG/1.1/DTD/svg11.dtd">
<svg version="1.1" id="Layer_1" xmlns="http://www.w3.org/2000/svg" xmlns:xlink="http://www.w3.org/1999/xlink" x="0px" y="0px"
	 viewBox="0 0 50 50" style="enable-background:new 0 0 50 50;" xml:space="preserve">
<style type="text/css">
	.st0{fill:none;stroke:#000000;stroke-width:2;stroke-linecap:round;stroke-miterlimit:10;}
	.st1{fill:#231F20;}
	.st2{fill:none;stroke:#000000;stroke-width:2;stroke-miterlimit:10;}
</style>
<path class="st1" d="M36,14h-2v-2c0-0.6-0.4-1-1-1H17c-0.6,0-1,0.4-1,1v2h-2v-2c0-1.7,1.3-3,3-3h16c1.7,0,3,1.3,3,3V14z"/>
<path class="st1" d="M47,43H3c-1.7,0-3-1.3-3-3V16c0-1.7,1.3-3,3-3h44c1.7,0,3,1.3,3,3v24C50,41.7,48.7,43,47,43z M3,15
	c-0.6,0-1,0.4-1,1v24c0,0.6,0.4,1,1,1h44c0.6,0,1-0.4,1-1V16c0-0.6-0.4-1-1-1H3z"/>
<rect x="29" y="24" class="st1" width="20" height="2"/>
<rect x="1" y="24" class="st1" width="20" height="2"/>
<path class="st1" d="M27,29h-4c-1.7,0-3-1.3-3-3v-2c0-1.7,1.3-3,3-3h4c1.7,0,3,1.3,3,3v2C30,27.7,28.7,29,27,29z M23,23
	c-0.6,0-1,0.4-1,1v2c0,0.6,0.4,1,1,1h4c0.6,0,1-0.4,1-1v-2c0-0.6-0.4-1-1-1H23z"/>
</svg>
