<?xml version="1.0" encoding="utf-8"?>
<!-- Generator: Adobe Illustrator 17.1.0, SVG Export Plug-In . SVG Version: 6.00 Build 0)  -->
<!DOCTYPE svg PUBLIC "-//W3C//DTD SVG 1.1//EN" "http://www.w3.org/Graphics/SVG/1.1/DTD/svg11.dtd">
<svg version="1.1" id="Layer_1" xmlns="http://www.w3.org/2000/svg" xmlns:xlink="http://www.w3.org/1999/xlink" x="0px" y="0px"
	 viewBox="0 0 48 48" style="enable-background:new 0 0 48 48;" xml:space="preserve">
<style type="text/css">
	.st0{fill:#231F20;}
</style>
<g>
	<path class="st0" d="M28,38.5c-0.3,0-0.5-0.1-0.7-0.3l-26-26c-0.4-0.4-0.4-1,0-1.4s1-0.4,1.4,0L28,36.1l18.3-18.3
		c0.4-0.4,1-0.4,1.4,0s0.4,1,0,1.4l-19,19C28.5,38.4,28.3,38.5,28,38.5z"/>
	<path class="st0" d="M1,23c-0.6,0-1-0.4-1-1V11c0-0.6,0.4-1,1-1h11c0.6,0,1,0.4,1,1s-0.4,1-1,1H2v10C2,22.6,1.6,23,1,23z"/>
</g>
</svg>
