<?xml version="1.0" encoding="utf-8"?>
<!-- Generator: Adobe Illustrator 17.1.0, SVG Export Plug-In . SVG Version: 6.00 Build 0)  -->
<!DOCTYPE svg PUBLIC "-//W3C//DTD SVG 1.1//EN" "http://www.w3.org/Graphics/SVG/1.1/DTD/svg11.dtd">
<svg version="1.1" id="Layer_1" xmlns="http://www.w3.org/2000/svg" xmlns:xlink="http://www.w3.org/1999/xlink" x="0px" y="0px"
	 viewBox="0 0 48 48" style="enable-background:new 0 0 48 48;" xml:space="preserve">
<style type="text/css">
	.st0{fill:none;stroke:#000000;stroke-width:2;stroke-linecap:round;stroke-linejoin:round;stroke-miterlimit:10;}
</style>
<g>
	<path d="M7,48c-0.3,0-0.5-0.1-0.7-0.3c-0.3-0.3-0.4-0.8-0.2-1.1l17-34.1c0.2-0.5,0.8-0.7,1.3-0.4c0.5,0.2,0.7,0.8,0.4,1.3l-6,11.9
		l15.5,7.8c0.3,0.2,0.6,0.5,0.6,0.9c0,0.4-0.2,0.7-0.6,0.9l-27,13C7.3,48,7.1,48,7,48z M18,27.1L9.2,44.8L31.7,34L18,27.1z"/>
	<path d="M41,48c-0.1,0-0.3,0-0.4-0.1l-27-13C13.2,34.7,13,34.4,13,34c0-0.4,0.2-0.7,0.6-0.9l15.5-7.8l-6-11.9
		c-0.2-0.5,0-1.1,0.4-1.3c0.5-0.2,1.1,0,1.3,0.4l17,34.1c0.2,0.4,0.1,0.8-0.2,1.1C41.5,47.9,41.3,48,41,48z M16.3,34l22.5,10.9
		L30,27.1L16.3,34z"/>
	<path d="M24,14.9c-1.1,0-2-0.9-2-2s0.9-2,2-2s2,0.9,2,2S25.1,14.9,24,14.9z M24,12.9L24,12.9L24,12.9z"/>
	<path d="M17.6,16.6c-0.4,0-0.8-0.2-0.9-0.6c-0.9-2.3-0.6-5,0.8-7.2c1.3-2.2,3.5-3.5,5.9-3.8c2.6-0.3,5,0.8,6.7,3
		c1.8,2.2,2.3,5.2,1.4,7.8c-0.2,0.5-0.8,0.8-1.3,0.6c-0.5-0.2-0.8-0.7-0.6-1.3c0.7-1.9,0.2-4.2-1.1-5.9c-1.3-1.6-3.1-2.4-5-2.2
		c-1.8,0.2-3.4,1.2-4.4,2.8c-1,1.7-1.3,3.7-0.6,5.5c0.2,0.5-0.1,1.1-0.6,1.3C17.8,16.6,17.7,16.6,17.6,16.6z"/>
	<path d="M14.7,21.5c-0.3,0-0.6-0.1-0.8-0.4c-2.6-3.2-3.5-7.6-2.2-11.8c1.1-3.7,3.9-6.8,7.5-8.3c3.4-1.5,7.3-1.4,10.5,0.2
		c3.4,1.7,5.9,4.9,6.7,8.8C37.3,14,36.5,18,34.2,21c-0.3,0.4-1,0.5-1.4,0.2c-0.4-0.3-0.5-1-0.2-1.4c2-2.6,2.7-5.9,1.9-9.3
		c-0.8-3.3-2.8-6-5.7-7.5C26,1.7,22.9,1.6,20,2.9c-3.1,1.3-5.4,3.9-6.4,7.1c-1,3.5-0.3,7.2,1.9,9.9c0.3,0.4,0.3,1.1-0.1,1.4
		C15.1,21.4,14.9,21.5,14.7,21.5z"/>
</g>
</svg>
