<?xml version="1.0" encoding="utf-8"?>
<!-- Generator: Adobe Illustrator 17.1.0, SVG Export Plug-In . SVG Version: 6.00 Build 0)  -->
<!DOCTYPE svg PUBLIC "-//W3C//DTD SVG 1.1//EN" "http://www.w3.org/Graphics/SVG/1.1/DTD/svg11.dtd">
<svg version="1.1" id="Layer_1" xmlns="http://www.w3.org/2000/svg" xmlns:xlink="http://www.w3.org/1999/xlink" x="0px" y="0px"
	 viewBox="0 0 48 48" style="enable-background:new 0 0 48 48;" xml:space="preserve">
<style type="text/css">
	.st0{fill:none;stroke:#000000;stroke-width:2;stroke-linecap:round;stroke-linejoin:round;stroke-miterlimit:10;}
</style>
<path d="M37,31H11c-0.6,0-1-0.4-1-1V20c0-0.6,0.4-1,1-1s1,0.4,1,1v9h24V15H17c-0.6,0-1-0.4-1-1s0.4-1,1-1h20c0.6,0,1,0.4,1,1v16
	C38,30.6,37.6,31,37,31z"/>
<path d="M47,31c-0.6,0-1-0.4-1-1v-5.4l-8-4V30c0,0.6-0.4,1-1,1s-1-0.4-1-1V19c0-0.3,0.2-0.7,0.5-0.9c0.3-0.2,0.7-0.2,1,0l10,5
	c0.3,0.2,0.6,0.5,0.6,0.9v6C48,30.6,47.6,31,47,31z"/>
<path d="M16,39h-5c-0.6,0-1-0.4-1-1v-8c0-0.6,0.4-1,1-1h26c0.6,0,1,0.4,1,1s-0.4,1-1,1H12v6h4c0.6,0,1,0.4,1,1S16.6,39,16,39z"/>
<path d="M47,39h-5c-0.6,0-1-0.4-1-1s0.4-1,1-1h4v-7c0-0.6,0.4-1,1-1s1,0.4,1,1v8C48,38.6,47.6,39,47,39z"/>
<path d="M36,39H22c-0.6,0-1-0.4-1-1s0.4-1,1-1h14c0.6,0,1,0.4,1,1S36.6,39,36,39z"/>
<path d="M39,42c-2.2,0-4-1.8-4-4s1.8-4,4-4s4,1.8,4,4S41.2,42,39,42z M39,36c-1.1,0-2,0.9-2,2s0.9,2,2,2s2-0.9,2-2S40.1,36,39,36z"
	/>
<path d="M19,42c-2.2,0-4-1.8-4-4s1.8-4,4-4s4,1.8,4,4S21.2,42,19,42z M19,36c-1.1,0-2,0.9-2,2s0.9,2,2,2s2-0.9,2-2S20.1,36,19,36z"
	/>
<path d="M8,32H1c-0.6,0-1-0.4-1-1s0.4-1,1-1h7c0.6,0,1,0.4,1,1S8.6,32,8,32z"/>
<path d="M8,35H3c-0.6,0-1-0.4-1-1s0.4-1,1-1h5c0.6,0,1,0.4,1,1S8.6,35,8,35z"/>
<path d="M8,38H5c-0.6,0-1-0.4-1-1s0.4-1,1-1h3c0.6,0,1,0.4,1,1S8.6,38,8,38z"/>
<path d="M11,21c-3.9,0-7-3.1-7-7s3.1-7,7-7s7,3.1,7,7S14.9,21,11,21z M11,9c-2.8,0-5,2.2-5,5s2.2,5,5,5s5-2.2,5-5S13.8,9,11,9z"/>
<path d="M10,17c-0.3,0-0.5-0.1-0.7-0.3l-1-1c-0.4-0.4-0.4-1,0-1.4s1-0.4,1.4,0l0.3,0.3l2.3-2.3c0.4-0.4,1-0.4,1.4,0s0.4,1,0,1.4
	l-3,3C10.5,16.9,10.3,17,10,17z"/>
</svg>
