<?xml version="1.0" encoding="utf-8"?>
<!-- Generator: Adobe Illustrator 17.1.0, SVG Export Plug-In . SVG Version: 6.00 Build 0)  -->
<!DOCTYPE svg PUBLIC "-//W3C//DTD SVG 1.1//EN" "http://www.w3.org/Graphics/SVG/1.1/DTD/svg11.dtd">
<svg version="1.1" id="Layer_1" xmlns="http://www.w3.org/2000/svg" xmlns:xlink="http://www.w3.org/1999/xlink" x="0px" y="0px"
	 viewBox="0 0 48 48" style="enable-background:new 0 0 48 48;" xml:space="preserve">
<style type="text/css">
	.st0{fill:#231F20;}
</style>
<path class="st0" d="M23.3,37C23.3,37,23.3,37,23.3,37c-0.6,0-1-0.3-1-0.9c0.1-2.8,0.2-5.4,1.7-8c1.5-2.7,3.9-4.2,6.2-5.8
	c0.5-0.3,1-0.7,1.5-1c1.7-1.2,3.8-2.9,4.7-5.4c0.8-2.1,0.6-4.8-0.4-7.2C33.7,3.5,28.2,0.8,23,2.5c-3.7,1.2-6.8,4.2-8,7.9
	c-0.2,0.5-0.8,0.8-1.3,0.6c-0.5-0.2-0.8-0.7-0.6-1.3c1.5-4.3,5-7.8,9.3-9.2c6.2-2,12.7,1.1,15.5,7.3c1.3,2.8,1.4,6.1,0.5,8.7
	c-1.1,3-3.6,5.1-5.4,6.3c-0.5,0.4-1.1,0.7-1.6,1.1c-2.2,1.5-4.3,2.9-5.6,5.1c-1.2,2.2-1.4,4.4-1.4,7C24.3,36.7,23.8,37,23.3,37z"/>
<path class="st0" d="M23.5,48c-1.9,0-3.4-1.5-3.4-3.3s1.5-3.3,3.4-3.3c1.9,0,3.4,1.5,3.4,3.3S25.3,48,23.5,48z M23.5,43.4
	c-0.8,0-1.4,0.6-1.4,1.3s0.6,1.3,1.4,1.3s1.4-0.6,1.4-1.3S24.2,43.4,23.5,43.4z"/>
</svg>
