<?xml version="1.0" encoding="utf-8"?>
<!-- Generator: Adobe Illustrator 17.1.0, SVG Export Plug-In . SVG Version: 6.00 Build 0)  -->
<!DOCTYPE svg PUBLIC "-//W3C//DTD SVG 1.1//EN" "http://www.w3.org/Graphics/SVG/1.1/DTD/svg11.dtd">
<svg version="1.1" id="Layer_1" xmlns="http://www.w3.org/2000/svg" xmlns:xlink="http://www.w3.org/1999/xlink" x="0px" y="0px"
	 viewBox="0 0 48 48" style="enable-background:new 0 0 48 48;" xml:space="preserve">
<style type="text/css">
	.st0{fill:none;stroke:#000000;stroke-width:2;stroke-linecap:round;stroke-linejoin:round;stroke-miterlimit:10;}
</style>
<g>
	<path d="M47,41H1c-0.6,0-1-0.4-1-1V8c0-0.6,0.4-1,1-1h46c0.6,0,1,0.4,1,1v32C48,40.6,47.6,41,47,41z M2,39h44V9H2V39z"/>
	<path d="M39.5,37h-31c-0.6,0-1-0.4-1-1c0-1.4-1.1-2.5-2.5-2.5c-0.6,0-1-0.4-1-1V15.6c0-0.6,0.4-1,1-1c1.4,0,2.5-1.2,2.5-2.6
		c0-0.6,0.4-1,1-1h31c0.6,0,1,0.4,1,1c0,1.4,1.1,2.6,2.5,2.6c0.6,0,1,0.4,1,1v16.9c0,0.6-0.4,1-1,1c-1.4,0-2.5,1.1-2.5,2.5
		C40.5,36.6,40.1,37,39.5,37z M9.4,35h29.2c0.4-1.7,1.7-3,3.4-3.4V16.5c-1.7-0.4-3-1.8-3.4-3.5H9.4C9,14.7,7.7,16.1,6,16.5v15.1
		C7.7,32,9,33.3,9.4,35z"/>
	<path d="M35,22c-0.2,0-0.4,0-0.5-0.1l-2.8-1.7l-2.8,1.7c-0.3,0.2-0.7,0.2-1,0l-2.8-1.7l-2.8,1.7c-0.3,0.2-0.7,0.2-1,0l-2.8-1.7
		l-2.8,1.7c-0.3,0.2-0.7,0.2-1,0l-3.3-2c-0.5-0.3-0.6-0.9-0.3-1.4c0.3-0.5,0.9-0.6,1.4-0.3l2.8,1.7l2.8-1.7c0.3-0.2,0.7-0.2,1,0
		l2.8,1.7l2.8-1.7c0.3-0.2,0.7-0.2,1,0l2.8,1.7l2.8-1.7c0.3-0.2,0.7-0.2,1,0l3.3,2c0.5,0.3,0.6,0.9,0.3,1.4C35.7,21.8,35.3,22,35,22
		z"/>
	<path d="M24,33c-2.2,0-4-1.8-4-4s1.8-4,4-4s4,1.8,4,4S26.2,33,24,33z M24,27c-1.1,0-2,0.9-2,2s0.9,2,2,2s2-0.9,2-2S25.1,27,24,27z"
		/>
	<path d="M35,30h-4c-0.6,0-1-0.4-1-1s0.4-1,1-1h4c0.6,0,1,0.4,1,1S35.6,30,35,30z"/>
	<path d="M17,30h-4c-0.6,0-1-0.4-1-1s0.4-1,1-1h4c0.6,0,1,0.4,1,1S17.6,30,17,30z"/>
</g>
</svg>
