<?xml version="1.0" encoding="utf-8"?>
<!-- Generator: Adobe Illustrator 17.1.0, SVG Export Plug-In . SVG Version: 6.00 Build 0)  -->
<!DOCTYPE svg PUBLIC "-//W3C//DTD SVG 1.1//EN" "http://www.w3.org/Graphics/SVG/1.1/DTD/svg11.dtd">
<svg version="1.1" id="Layer_1" xmlns="http://www.w3.org/2000/svg" xmlns:xlink="http://www.w3.org/1999/xlink" x="0px" y="0px"
	 viewBox="0 0 50 50" style="enable-background:new 0 0 50 50;" xml:space="preserve">
<style type="text/css">
	.st0{fill:none;stroke:#000000;stroke-width:2;stroke-linecap:round;stroke-miterlimit:10;}
	.st1{fill:#231F20;}
	.st2{fill:none;stroke:#000000;stroke-width:2;stroke-miterlimit:10;}
</style>
<g>
	<path d="M47,50H3c-1.7,0-3-1.3-3-3s1.3-3,3-3h44c1.7,0,3,1.3,3,3S48.7,50,47,50z M3,46c-0.6,0-1,0.4-1,1s0.4,1,1,1h44
		c0.6,0,1-0.4,1-1s-0.4-1-1-1H3z"/>
	<path d="M5,42c-0.6,0-1-0.4-1-1V21c0-0.6,0.4-1,1-1s1,0.4,1,1v20C6,41.6,5.6,42,5,42z"/>
	<path d="M15,42c-0.6,0-1-0.4-1-1V21c0-0.6,0.4-1,1-1s1,0.4,1,1v20C16,41.6,15.6,42,15,42z"/>
	<path d="M25,42c-0.6,0-1-0.4-1-1V21c0-0.6,0.4-1,1-1s1,0.4,1,1v20C26,41.6,25.6,42,25,42z"/>
	<path d="M35,42c-0.6,0-1-0.4-1-1V21c0-0.6,0.4-1,1-1s1,0.4,1,1v20C36,41.6,35.6,42,35,42z"/>
	<path d="M45,42c-0.6,0-1-0.4-1-1V21c0-0.6,0.4-1,1-1s1,0.4,1,1v20C46,41.6,45.6,42,45,42z"/>
	<path d="M47,18H3c-1.4,0-1.8-0.6-1.9-1c-0.1-0.4-0.1-1.1,1-1.9l0,0L22.8,1.3c1.2-0.8,3.2-0.8,4.4,0l20.7,13.8
		c1.1,0.8,1.1,1.5,1,1.9C48.8,17.4,48.4,18,47,18z M4.3,16h41.4L26.1,2.9c-0.6-0.4-1.6-0.4-2.2,0L4.3,16z"/>
</g>
</svg>
