<?xml version="1.0" encoding="utf-8"?>
<!-- Generator: Adobe Illustrator 17.1.0, SVG Export Plug-In . SVG Version: 6.00 Build 0)  -->
<!DOCTYPE svg PUBLIC "-//W3C//DTD SVG 1.1//EN" "http://www.w3.org/Graphics/SVG/1.1/DTD/svg11.dtd">
<svg version="1.1" id="Layer_1" xmlns="http://www.w3.org/2000/svg" xmlns:xlink="http://www.w3.org/1999/xlink" x="0px" y="0px"
	 viewBox="0 0 48 48" style="enable-background:new 0 0 48 48;" xml:space="preserve">
<style type="text/css">
	.st0{fill:#231F20;}
</style>
<path class="st0" d="M47,35H13c-0.6,0-1-0.4-1-1s0.4-1,1-1h33V17H13c-0.6,0-1-0.4-1-1s0.4-1,1-1h34c0.6,0,1,0.4,1,1v18
	C48,34.6,47.6,35,47,35z"/>
<path class="st0" d="M13,35c-0.2,0-0.4-0.1-0.6-0.2l-12-9C0.1,25.6,0,25.3,0,25s0.1-0.6,0.4-0.8l12-9c0.4-0.3,1.1-0.2,1.4,0.2
	c0.3,0.4,0.2,1.1-0.2,1.4L2.7,25l10.9,8.2c0.4,0.3,0.5,1,0.2,1.4C13.6,34.9,13.3,35,13,35z"/>
<path class="st0" d="M40,28c-1.7,0-3-1.3-3-3s1.3-3,3-3s3,1.3,3,3S41.7,28,40,28z M40,24c-0.6,0-1,0.4-1,1s0.4,1,1,1s1-0.4,1-1
	S40.6,24,40,24z"/>
</svg>
